<svg width="100" height="105" viewBox="0 0 100 105" fill="none" xmlns="http://www.w3.org/2000/svg">
<g filter="url(#filter0_b_81004_1683)">
<path d="M87.5898 48.0433C87.5898 72.0933 71.7498 94.5833 50.4648 100.043C29.1798 94.5833 13.3398 72.0933 13.3398 48.0433V22.0433L50.4648 4.70996L87.5898 22.0433V48.0433Z" fill="#0389FF" fill-opacity="0.1"/>
</g>
<path d="M87.5898 48.0433C87.5898 72.0933 71.7498 94.5833 50.4648 100.043C29.1798 94.5833 13.3398 72.0933 13.3398 48.0433V22.0433L50.4648 4.70996L87.5898 22.0433V48.0433ZM50.4648 91.3766C65.9336 87.0433 79.3398 67.7166 79.3398 48.9966V27.6766L50.4648 14.1566L21.5898 27.6766V48.9966C21.5898 67.7166 34.9961 87.0433 50.4648 91.3766Z" fill="#0389FF"/>
<path d="M44.0034 27.0397C42.5336 27.0708 42.4497 27.0915 42.2721 27.4542C42.0995 27.8066 38.1488 47.0036 36.7973 54.0503C36.5063 55.5736 36.5063 55.6047 36.8565 56.0244L37.0587 56.2628L41.2068 56.2679C45.5965 56.2731 49.1083 56.3198 49.1625 56.3819C49.202 56.4234 49.1527 56.6306 47.2291 64.0608C45.4485 70.9313 44.7038 73.838 44.2747 75.5945C43.9294 77.0298 43.9245 77.092 44.2056 77.4287C44.4818 77.7552 45.0441 77.864 45.2858 77.636C45.6261 77.3096 53.1824 65.5685 59.7768 55.1125C63.9643 48.4699 64.1814 48.1073 64.3244 47.5632C64.3984 47.273 64.3688 47.1591 64.132 46.8482L63.9397 46.5891L56.7731 46.5528C52.8272 46.5373 49.3204 46.5062 48.9702 46.4855C48.3635 46.4544 48.3438 46.4492 48.3734 46.3456C48.3882 46.2834 49.7791 43.3196 51.461 39.76C54.5782 33.1641 56.1516 29.7962 56.6498 28.6563C56.9605 27.9361 56.9901 27.7237 56.8125 27.4542C56.6152 27.1382 56.4673 27.0863 55.6337 27.0397C54.81 26.9879 46.0996 26.9879 44.0034 27.0397Z" fill="white"/>
<defs>
<filter id="filter0_b_81004_1683" x="4.33984" y="-4.29004" width="92.25" height="113.333" filterUnits="userSpaceOnUse" color-interpolation-filters="sRGB">
<feFlood flood-opacity="0" result="BackgroundImageFix"/>
<feGaussianBlur in="BackgroundImageFix" stdDeviation="4.5"/>
<feComposite in2="SourceAlpha" operator="in" result="effect1_backgroundBlur_81004_1683"/>
<feBlend mode="normal" in="SourceGraphic" in2="effect1_backgroundBlur_81004_1683" result="shape"/>
</filter>
</defs>
</svg>
