<svg width="49" height="34" viewBox="0 0 49 34" fill="none" xmlns="http://www.w3.org/2000/svg">
<path d="M21.0474 0.608892C19.4479 0.829582 16.8452 1.85027 15.2999 2.87096C12.5074 4.69165 9.90476 8.41579 9.38965 11.2296C9.19987 12.1675 9.11854 12.2779 8.35943 12.2779C5.43143 12.2779 2.28654 14.2089 0.985208 16.8296C0.280319 18.2365 0.171875 18.733 0.171875 20.6641C0.171875 22.3468 0.334542 23.202 0.768319 24.1675C1.55454 25.9054 3.12699 27.6158 4.75365 28.4985C6.13632 29.2434 6.19054 29.2434 12.5888 29.3261C18.1465 29.4089 19.0141 29.3537 19.0141 28.9951C19.0141 28.6641 18.0923 28.5813 12.7243 28.4985C6.78699 28.4158 6.3261 28.3882 5.26876 27.8089C3.77765 26.9813 2.39499 25.4917 1.66299 23.9468C-0.641458 18.9261 2.77454 13.3537 8.22388 13.271L9.76921 13.2434L10.0945 11.8641C10.8265 8.69165 13.4834 4.93993 16.1945 3.25717C17.523 2.45717 20.0985 1.62958 21.915 1.40889C26.0088 0.91234 31.0243 3.09165 33.5457 6.45717L34.5217 7.72613L36.9888 7.75372C40.5132 7.80889 42.167 8.49855 44.5257 10.871C46.8301 13.2158 47.5621 15.0089 47.5621 18.2089C47.5621 21.271 46.803 23.2296 44.7968 25.2434C42.1128 27.9468 40.2421 28.5261 34.2777 28.5537C30.6719 28.5537 30.1297 28.6089 30.1297 28.9951C30.1297 29.3813 30.6719 29.4089 35.091 29.3261C39.3474 29.2158 40.215 29.133 41.5163 28.6089C49.4328 25.4089 50.951 14.6779 44.2274 9.27096C42.2212 7.67096 40.215 6.95372 37.4497 6.89855L35.1452 6.84337L33.4101 5.02268C30.1568 1.57441 25.6834 -0.0255909 21.0474 0.608892Z" fill="#0389FF"/>
<path d="M21.2385 17.7678C18.2833 21.023 17.4429 22.2092 18.1749 22.2092C18.2833 22.2092 19.666 20.8299 21.2113 19.1196L24.0309 16.0575L24.1665 24.4989C24.2478 29.7954 24.4104 32.9954 24.5731 33.0506C24.7358 33.0782 24.8713 30.0989 24.9256 24.6092C24.9527 19.9471 25.034 16.1402 25.1153 16.1402C25.1696 16.1402 25.8202 16.8023 26.5251 17.5747C29.8869 21.3265 30.89 22.292 31.1882 22.0989C31.5136 21.8782 30.5376 20.6368 26.6878 16.4437L24.546 14.1265L21.2385 17.7678Z" fill="#0389FF"/>
</svg>
