<svg width="33" height="32" viewBox="0 0 33 32" fill="none" xmlns="http://www.w3.org/2000/svg">
<g clip-path="url(#clip0_81004_2005)">
<circle cx="16.3438" cy="15.9912" r="15.5" stroke="white"/>
<path d="M25.3438 10.6165C24.718 10.9009 24.0436 11.0878 23.3447 11.1772C24.0598 10.7465 24.6124 10.0639 24.8724 9.24312C24.198 9.64943 23.4503 9.93385 22.6621 10.0964C22.0201 9.39752 21.1181 8.99121 20.0942 8.99121C18.1846 8.99121 16.6243 10.5514 16.6243 12.4773C16.6243 12.7536 16.6568 13.0218 16.7137 13.2737C13.8208 13.1274 11.2448 11.7379 9.53017 9.63318C9.22951 10.1451 9.05886 10.7465 9.05886 11.3803C9.05886 12.5911 9.66832 13.6638 10.611 14.2732C10.034 14.2732 9.49767 14.1107 9.02635 13.8669V13.8913C9.02635 15.5816 10.229 16.9955 11.8218 17.3124C11.3104 17.4524 10.7736 17.4718 10.2534 17.3693C10.4741 18.0621 10.9064 18.6682 11.4894 19.1026C12.0725 19.5369 12.777 19.7777 13.5039 19.7909C12.2717 20.7664 10.7442 21.2937 9.17262 21.2861C8.89633 21.2861 8.62004 21.2699 8.34375 21.2374C9.88773 22.2288 11.7242 22.8057 13.6908 22.8057C20.0942 22.8057 23.6129 17.4912 23.6129 12.8837C23.6129 12.7293 23.6129 12.583 23.6047 12.4286C24.2873 11.941 24.8724 11.3234 25.3438 10.6165Z" fill="white"/>
</g>
<defs>
<clipPath id="clip0_81004_2005">
<rect width="32" height="32" fill="white" transform="translate(0.34375 -0.00878906)"/>
</clipPath>
</defs>
</svg>
