<svg width="33" height="32" viewBox="0 0 33 32" fill="none" xmlns="http://www.w3.org/2000/svg">
<g clip-path="url(#clip0_81004_1998)">
<circle cx="16.3438" cy="15.9912" r="15.5" stroke="white"/>
<path d="M15.8411 12.6582C15.0897 12.6582 14.369 12.9567 13.8377 13.4881C13.3063 14.0194 13.0078 14.7401 13.0078 15.4915C13.0078 16.243 13.3063 16.9637 13.8377 17.495C14.369 18.0264 15.0897 18.3249 15.8411 18.3249C16.5926 18.3249 17.3133 18.0264 17.8446 17.495C18.376 16.9637 18.6745 16.243 18.6745 15.4915C18.6745 14.7401 18.376 14.0194 17.8446 13.4881C17.3133 12.9567 16.5926 12.6582 15.8411 12.6582Z" fill="white"/>
<path fill-rule="evenodd" clip-rule="evenodd" d="M12.4437 6.99121C11.0911 6.99121 9.79394 7.52853 8.83751 8.48497C7.88107 9.4414 7.34375 10.7386 7.34375 12.0912L7.34375 18.8912C7.34375 20.2438 7.88107 21.541 8.83751 22.4975C9.79394 23.4539 11.0911 23.9912 12.4437 23.9912H19.2437C20.5964 23.9912 21.8936 23.4539 22.85 22.4975C23.8064 21.541 24.3438 20.2438 24.3438 18.8912V12.0912C24.3438 10.7386 23.8064 9.4414 22.85 8.48497C21.8936 7.52853 20.5964 6.99121 19.2437 6.99121H12.4437ZM11.8771 15.4912C11.8771 14.4392 12.295 13.4302 13.0389 12.6864C13.7828 11.9425 14.7917 11.5245 15.8438 11.5245C16.8958 11.5245 17.9047 11.9425 18.6486 12.6864C19.3925 13.4302 19.8104 14.4392 19.8104 15.4912C19.8104 16.5432 19.3925 17.5522 18.6486 18.2961C17.9047 19.04 16.8958 19.4579 15.8438 19.4579C14.7917 19.4579 13.7828 19.04 13.0389 18.2961C12.295 17.5522 11.8771 16.5432 11.8771 15.4912ZM19.8104 11.5245H20.9438V10.3912H19.8104V11.5245Z" fill="white"/>
</g>
<defs>
<clipPath id="clip0_81004_1998">
<rect width="32" height="32" fill="white" transform="translate(0.34375 -0.00878906)"/>
</clipPath>
</defs>
</svg>
